<svg version="1.2" xmlns="http://www.w3.org/2000/svg" viewBox="0 0 1467 112" width="1467" height="112"><style>.a{fill:none;stroke:#fff}</style><g style="opacity:.2"><path class="a" d="m1227.2-226.7l613.1 613.1"/><path class="a" d="m1213-226.7l613.1 613.1"/><path class="a" d="m1198.7-226.7l613.1 613.1"/><path class="a" d="m1184.5-226.7l613.1 613.1"/><path class="a" d="m1170.3-226.7l613.1 613.1"/><path class="a" d="m1156-226.7l613.1 613.1"/><path class="a" d="m1141.8-226.7l613.1 613.1"/><path class="a" d="m1127.6-226.7l613.1 613.1"/><path class="a" d="m1113.3-226.7l613.1 613.1"/><path class="a" d="m1099.1-226.7l613.1 613.1"/><path class="a" d="m1084.9-226.7l613 613.1"/><path class="a" d="m1070.6-226.7l613.1 613.1"/><path class="a" d="m1056.4-226.7l613.1 613.1"/><path class="a" d="m1042.2-226.7l613 613.1"/><path class="a" d="m1027.9-226.7l613.1 613.1"/><path class="a" d="m1013.7-226.7l613.1 613.1"/><path class="a" d="m999.5-226.7l613 613.1"/><path class="a" d="m985.2-226.7l613.1 613.1"/><path class="a" d="m971-226.7l613.1 613.1"/><path class="a" d="m956.7-226.7l613.1 613.1"/><path class="a" d="m942.5-226.7l613.1 613.1"/><path class="a" d="m928.3-226.7l613.1 613.1"/><path class="a" d="m914-226.7l613.1 613.1"/><path class="a" d="m899.8-226.7l613.1 613.1"/><path class="a" d="m885.6-226.7l613.1 613.1"/><path class="a" d="m871.3-226.7l613.1 613.1"/><path class="a" d="m857.1-226.7l613.1 613.1"/><path class="a" d="m842.9-226.7l613.1 613.1"/><path class="a" d="m828.6-226.7l613.1 613.1"/><path class="a" d="m814.4-226.7l613.1 613.1"/><path class="a" d="m800.2-226.7l613.1 613.1"/><path class="a" d="m785.9-226.7l613.1 613.1"/><path class="a" d="m771.7-226.7l613.1 613.1"/><path class="a" d="m757.5-226.7l613.1 613.1"/><path class="a" d="m743.2-226.7l613.1 613.1"/><path class="a" d="m729-226.7l613.1 613.1"/><path class="a" d="m714.8-226.7l613.1 613.1"/><path class="a" d="m700.5-226.7l613.1 613.1"/><path class="a" d="m686.3-226.7l613.1 613.1"/><path class="a" d="m672.1-226.7l613.1 613.1"/><path class="a" d="m657.8-226.7l613.1 613.1"/><path class="a" d="m643.6-226.7l613.1 613.1"/><path class="a" d="m629.4-226.7l613.1 613.1"/><path class="a" d="m615.1-226.7l613.1 613.1"/><path class="a" d="m600.9-226.7l613.1 613.1"/><path class="a" d="m586.7-226.7l613 613.1"/><path class="a" d="m572.4-226.7l613.1 613.1"/><path class="a" d="m558.2-226.7l613.1 613.1"/><path class="a" d="m544-226.7l613 613.1"/><path class="a" d="m529.7-226.7l613.1 613.1"/><path class="a" d="m515.5-226.7l613.1 613.1"/><path class="a" d="m501.3-226.7l613 613.1"/><path class="a" d="m487-226.7l613.1 613.1"/><path class="a" d="m472.8-226.7l613.1 613.1"/><path class="a" d="m458.5-226.7l613.1 613.1"/><path class="a" d="m444.3-226.7l613.1 613.1"/><path class="a" d="m430.1-226.7l613.1 613.1"/><path class="a" d="m415.8-226.7l613.1 613.1"/><path class="a" d="m401.6-226.7l613.1 613.1"/><path class="a" d="m387.4-226.7l613.1 613.1"/><path class="a" d="m373.1-226.7l613.1 613.1"/><path class="a" d="m358.9-226.7l613.1 613.1"/><path class="a" d="m344.7-226.7l613.1 613.1"/><path class="a" d="m330.4-226.7l613.1 613.1"/><path class="a" d="m316.2-226.7l613.1 613.1"/><path class="a" d="m302-226.7l613.1 613.1"/><path class="a" d="m287.7-226.7l613.1 613.1"/><path class="a" d="m273.5-226.7l613.1 613.1"/><path class="a" d="m259.3-226.7l613.1 613.1"/><path class="a" d="m245-226.7l613.1 613.1"/><path class="a" d="m230.8-226.7l613.1 613.1"/><path class="a" d="m216.6-226.7l613.1 613.1"/><path class="a" d="m202.3-226.7l613.1 613.1"/><path class="a" d="m188.1-226.7l613.1 613.1"/><path class="a" d="m173.9-226.7l613.1 613.1"/><path class="a" d="m159.6-226.7l613.1 613.1"/><path class="a" d="m145.4-226.7l613.1 613.1"/><path class="a" d="m131.2-226.7l613.1 613.1"/><path class="a" d="m116.9-226.7l613.1 613.1"/><path class="a" d="m102.7-226.7l613.1 613.1"/><path class="a" d="m88.5-226.7l613 613.1"/><path class="a" d="m74.2-226.7l613.1 613.1"/><path class="a" d="m60-226.7l613.1 613.1"/><path class="a" d="m45.8-226.7l613 613.1"/><path class="a" d="m31.5-226.7l613.1 613.1"/><path class="a" d="m17.3-226.7l613.1 613.1"/><path class="a" d="m3.1-226.7l613 613.1"/><path class="a" d="m-11.2-226.7l613.1 613.1"/><path class="a" d="m-25.4-226.7l613.1 613.1"/><path class="a" d="m-39.7-226.7l613.1 613.1"/><path class="a" d="m-53.9-226.7l613.1 613.1"/><path class="a" d="m-68.1-226.7l613.1 613.1"/><path class="a" d="m-82.4-226.7l613.1 613.1"/><path class="a" d="m-96.6-226.7l613.1 613.1"/><path class="a" d="m-110.8-226.7l613.1 613.1"/><path class="a" d="m-125.1-226.7l613.1 613.1"/><path class="a" d="m-139.3-226.7l613.1 613.1"/><path class="a" d="m-153.5-226.7l613.1 613.1"/><path class="a" d="m-167.8-226.7l613.1 613.1"/><path class="a" d="m-182-226.7l613.1 613.1"/><path class="a" d="m-196.2-226.7l613.1 613.1"/><path class="a" d="m-210.5-226.7l613.1 613.1"/><path class="a" d="m-224.7-226.7l613.1 613.1"/><path class="a" d="m-238.9-226.7l613.1 613.1"/><path class="a" d="m-253.2-226.7l613.1 613.1"/><path class="a" d="m-267.4-226.7l613.1 613.1"/><path class="a" d="m-281.6-226.7l613.1 613.1"/><path class="a" d="m-295.9-226.7l613.1 613.1"/><path class="a" d="m-310.1-226.7l613.1 613.1"/><path class="a" d="m-324.3-226.7l613.1 613.1"/><path class="a" d="m-338.6-226.7l613.1 613.1"/><path class="a" d="m-352.8-226.7l613.1 613.1"/><path class="a" d="m-367-226.7l613 613.1"/><path class="a" d="m-381.3-226.7l613.1 613.1"/><path class="a" d="m-389.1-219.4l613.1 613.1"/><path class="a" d="m-396.9-212l613.1 613.1"/><path class="a" d="m-404.7-204.7l613.1 613.1"/><path class="a" d="m-412.5-197.3l613.1 613.1"/><path class="a" d="m-420.4-190l613.1 613.1"/><path class="a" d="m-428.2-182.6l613.1 613.1"/><path class="a" d="m-436-175.2l613.1 613"/><path class="a" d="m-443.8-167.9l613.1 613.1"/><path class="a" d="m-451.6-160.5l613.1 613.1"/><path class="a" d="m-459.4-153.2l613.1 613.1"/><path class="a" d="m-467.3-145.8l613.1 613.1"/><path class="a" d="m-475.1-138.5l613.1 613.1"/><path class="a" d="m-482.9-131.1l613.1 613.1"/><path class="a" d="m-490.7-123.8l613.1 613.1"/><path class="a" d="m-498.5-116.4l613.1 613.1"/></g></svg>